<?xml version="1.0" encoding="UTF-8" standalone="no"?> <svg width="64" height="64" viewBox="0 0 64 64" fill="none" xmlns="http://www.w3.org/2000/svg">
<path d="M43.68 38.74L49 24.13V41.16L45.73 44.81L45.05 46.69C44.9801 46.8833 44.8524 47.0503 44.6842 47.1684C44.516 47.2865 44.3155 47.3499 44.11 47.35C43.9483 47.3505 43.7888 47.3118 43.6453 47.2372C43.5018 47.1625 43.3785 47.0542 43.2861 46.9214C43.1937 46.7887 43.1348 46.6355 43.1146 46.475C43.0944 46.3145 43.1134 46.1515 43.17 46L43.85 44.13L43.68 38.74Z" fill="#CFF09E"/>
<path d="M49 10V14H21V32C20.9992 34.6267 21.516 37.2277 22.5208 39.6546C23.5256 42.0815 24.9988 44.2866 26.8561 46.1439C28.7134 48.0012 30.9185 49.4744 33.3454 50.4792C35.7723 51.484 38.3733 52.0008 41 52H49V59C48.9984 59.5299 48.7872 60.0377 48.4125 60.4125C48.0377 60.7872 47.5299 60.9984 47 61H7C6.47005 60.9984 5.96227 60.7872 5.58753 60.4125C5.2128 60.0377 5.00158 59.5299 5 59V10C5.00158 9.47005 5.2128 8.96227 5.58753 8.58753C5.96227 8.2128 6.47005 8.00158 7 8H47C47.5299 8.00158 48.0377 8.2128 48.4125 8.58753C48.7872 8.96227 48.9984 9.47005 49 10V10Z" fill="#CFF09E"/>
<path d="M36 4V3H18V4C18 4.53043 17.7893 5.03914 17.4142 5.41421C17.0391 5.78929 16.5304 6 16 6V6C15.4696 6 14.9609 6.21071 14.5858 6.58579C14.2107 6.96086 14 7.46957 14 8V11H40V8C40 7.46957 39.7893 6.96086 39.4142 6.58579C39.0391 6.21071 38.5304 6 38 6V6C37.4696 6 36.9609 5.78929 36.5858 5.41421C36.2107 5.03914 36 4.53043 36 4Z" fill="#A8DBA8"/>
<path d="M37 47H20L14.451 48.586C14.033 48.7053 13.6653 48.9576 13.4035 49.3045C13.1417 49.6515 13 50.0743 13 50.509V55H42V51.132C42 50.7866 41.9106 50.4471 41.7404 50.1466C41.5702 49.8461 41.3252 49.5947 41.029 49.417L37 47Z" fill="#A8DBA8"/>
<path d="M20 57C21.1046 57 22 56.1046 22 55C22 53.8954 21.1046 53 20 53C18.8954 53 18 53.8954 18 55C18 56.1046 18.8954 57 20 57Z" fill="#79BD9A"/>
<path d="M35 57C36.1046 57 37 56.1046 37 55C37 53.8954 36.1046 53 35 53C33.8954 53 33 53.8954 33 55C33 56.1046 33.8954 57 35 57Z" fill="#79BD9A"/>
<path d="M42 51.132V52H40C39.4701 51.9984 38.9623 51.7872 38.5875 51.4124C38.2128 51.0377 38.0016 50.5299 38 50V47.6L41.029 49.417C41.3252 49.5947 41.5702 49.846 41.7404 50.1466C41.9106 50.4471 42 50.7866 42 51.132Z" fill="#CFF09E"/>
<path d="M17 47.86V50C16.9984 50.5299 16.7872 51.0377 16.4125 51.4124C16.0377 51.7872 15.5299 51.9984 15 52H13V50.51C12.9999 50.075 13.1416 49.6519 13.4036 49.3047C13.6656 48.9575 14.0337 48.7052 14.452 48.586L17 47.86Z" fill="#CFF09E"/>
<path d="M29 41V47H37L29 41Z" fill="#CFF09E"/>
<path d="M24.236 41C23.8645 41 23.5004 41.1035 23.1844 41.2988C22.8684 41.4942 22.6131 41.7737 22.447 42.106L20 47H29L24.236 41Z" fill="#CFF09E"/>
<path d="M17 17H11V23H17V17Z" fill="#79BD9A"/>
<path d="M17 27H11V33H17V27Z" fill="#79BD9A"/>
<path d="M38 27H32V33H38V27Z" fill="#79BD9A"/>
<path d="M17 37H11V43H17V37Z" fill="#79BD9A"/>
<path d="M38 17H32V23H38V17Z" fill="#79BD9A"/>
<path d="M58.6094 9.78515L52.9713 7.73303L41.6846 38.7429L47.3227 40.795L58.6094 9.78515Z" fill="#A8DBA8"/>
<path d="M43.733 44.81L41.854 44.126L41.684 38.743L47.323 40.795L43.733 44.81Z" fill="#79BD9A"/>
<path d="M57.842 3.12093C58.3405 3.30235 58.7464 3.67434 58.9706 4.15508C59.1948 4.63581 59.2188 5.18591 59.0374 5.68436L57.6693 9.44313L53.9105 8.07504L55.2786 4.31627C55.46 3.81783 55.832 3.41187 56.3128 3.1877C56.7935 2.96353 57.3436 2.93951 57.842 3.12093V3.12093Z" fill="#79BD9A"/>
<path d="M41.543 48.56L37.832 46.333L36.405 42.051C36.2058 41.4537 35.8238 40.9343 35.313 40.5662C34.8022 40.1981 34.1886 40 33.559 40H24.236C23.6785 39.9981 23.1317 40.1524 22.6575 40.4454C22.1832 40.7385 21.8006 41.1586 21.553 41.658L19.302 46.158L14.176 47.623C13.5501 47.8042 12.9997 48.1833 12.6074 48.7037C12.2151 49.224 12.002 49.8574 12 50.509V55C12 55.2652 12.1054 55.5196 12.2929 55.7071C12.4804 55.8947 12.7348 56 13 56H17.184C17.3876 56.5846 17.7682 57.0912 18.2727 57.4498C18.7773 57.8083 19.381 58.001 20 58.001C20.619 58.001 21.2227 57.8083 21.7273 57.4498C22.2318 57.0912 22.6124 56.5846 22.816 56H32.184C32.3876 56.5846 32.7682 57.0912 33.2727 57.4498C33.7773 57.8083 34.381 58.001 35 58.001C35.619 58.001 36.2227 57.8083 36.7273 57.4498C37.2318 57.0912 37.6124 56.5846 37.816 56H42C42.2652 56 42.5196 55.8947 42.7071 55.7071C42.8946 55.5196 43 55.2652 43 55V51.132C42.9986 50.6142 42.8638 50.1056 42.6086 49.6551C42.3534 49.2045 41.9864 48.8274 41.543 48.56V48.56ZM40.983 51H40C39.7348 51 39.4804 50.8947 39.2929 50.7071C39.1054 50.5196 39 50.2652 39 50V49.366L40.515 50.275C40.6422 50.3533 40.7502 50.459 40.8312 50.5844C40.9122 50.7099 40.9641 50.8519 40.983 51V51ZM34.507 42.684L35.613 46H30V42H33.559C33.7688 42.0002 33.9732 42.0663 34.1434 42.1891C34.3135 42.3118 34.4407 42.485 34.507 42.684ZM23.342 42.553C23.4244 42.3865 23.5519 42.2464 23.7099 42.1487C23.8679 42.0509 24.0502 41.9994 24.236 42H28V46H21.618L23.342 42.553ZM14.726 49.547L16 49.183V50C16 50.2652 15.8946 50.5196 15.7071 50.7071C15.5196 50.8947 15.2652 51 15 51H14V50.509C13.9999 50.2915 14.0708 50.08 14.2018 49.9064C14.3328 49.7328 14.5168 49.6066 14.726 49.547V49.547ZM14 53H15C15.7956 53 16.5587 52.6839 17.1213 52.1213C17.6839 51.5587 18 50.7957 18 50V48.611L20.14 48H28V54H22.816C22.6124 53.4155 22.2318 52.9088 21.7273 52.5502C21.2227 52.1917 20.619 51.9991 20 51.9991C19.381 51.9991 18.7773 52.1917 18.2727 52.5502C17.7682 52.9088 17.3876 53.4155 17.184 54H14V53ZM20 56C19.8022 56 19.6089 55.9414 19.4444 55.8315C19.28 55.7216 19.1518 55.5654 19.0761 55.3827C19.0004 55.2 18.9806 54.9989 19.0192 54.8049C19.0578 54.6109 19.153 54.4328 19.2929 54.2929C19.4327 54.1531 19.6109 54.0578 19.8049 54.0192C19.9989 53.9806 20.2 54.0005 20.3827 54.0761C20.5654 54.1518 20.7216 54.28 20.8315 54.4444C20.9414 54.6089 21 54.8022 21 55C21 55.2652 20.8946 55.5196 20.7071 55.7071C20.5196 55.8947 20.2652 56 20 56ZM35 56C34.8022 56 34.6089 55.9414 34.4444 55.8315C34.28 55.7216 34.1518 55.5654 34.0761 55.3827C34.0004 55.2 33.9806 54.9989 34.0192 54.8049C34.0578 54.6109 34.153 54.4328 34.2929 54.2929C34.4327 54.1531 34.6109 54.0578 34.8049 54.0192C34.9989 53.9806 35.2 54.0005 35.3827 54.0761C35.5654 54.1518 35.7216 54.28 35.8315 54.4444C35.9414 54.6089 36 54.8022 36 55C36 55.2652 35.8946 55.5196 35.7071 55.7071C35.5196 55.8947 35.2652 56 35 56ZM37.816 54C37.6124 53.4155 37.2318 52.9088 36.7273 52.5502C36.2227 52.1917 35.619 51.9991 35 51.9991C34.381 51.9991 33.7773 52.1917 33.2727 52.5502C32.7682 52.9088 32.3876 53.4155 32.184 54H30V48H36.723L37 48.166V50C37 50.7957 37.3161 51.5587 37.8787 52.1213C38.4413 52.6839 39.2044 53 40 53H41V54H37.816Z" fill="#3B8686"/>
<path d="M11 24.0001H17C17.2652 24.0001 17.5196 23.8947 17.7071 23.7072C17.8946 23.5197 18 23.2653 18 23.0001V18.8891L21.651 15.7591C21.7564 15.6755 21.8438 15.5715 21.9081 15.4534C21.9723 15.3353 22.0121 15.2054 22.025 15.0715C22.0379 14.9376 22.0237 14.8025 21.9831 14.6743C21.9426 14.546 21.8766 14.4273 21.7892 14.3251C21.7017 14.223 21.5945 14.1395 21.474 14.0797C21.3535 14.02 21.2222 13.9851 21.0879 13.9773C20.9537 13.9694 20.8192 13.9888 20.6926 14.0341C20.566 14.0794 20.4498 14.1498 20.351 14.2411L17.8 16.4281C17.711 16.2976 17.5917 16.1906 17.4525 16.116C17.3132 16.0415 17.158 16.0017 17 16.0001H11C10.7348 16.0001 10.4804 16.1054 10.2929 16.293C10.1054 16.4805 10 16.7349 10 17.0001V23.0001C10 23.2653 10.1054 23.5197 10.2929 23.7072C10.4804 23.8947 10.7348 24.0001 11 24.0001ZM16 22.0001H12V20.4141L13.293 21.7071C13.4712 21.8852 13.71 21.9896 13.9618 21.9992C14.2136 22.0089 14.4597 21.9231 14.651 21.7591L16 20.6001V22.0001ZM14.052 19.6381L12.414 18.0001H15.963L14.052 19.6381Z" fill="#3B8686"/>
<path d="M11 34H17C17.2652 34 17.5196 33.8946 17.7071 33.7071C17.8946 33.5196 18 33.2652 18 33V27C18 26.7348 17.8946 26.4804 17.7071 26.2929C17.5196 26.1054 17.2652 26 17 26H11C10.7348 26 10.4804 26.1054 10.2929 26.2929C10.1054 26.4804 10 26.7348 10 27V33C10 33.2652 10.1054 33.5196 10.2929 33.7071C10.4804 33.8946 10.7348 34 11 34ZM12 28H16V32H12V28Z" fill="#3B8686"/>
<path d="M32 34H38C38.2652 34 38.5196 33.8946 38.7071 33.7071C38.8946 33.5196 39 33.2652 39 33V27C39 26.7348 38.8946 26.4804 38.7071 26.2929C38.5196 26.1054 38.2652 26 38 26H32C31.7348 26 31.4804 26.1054 31.2929 26.2929C31.1054 26.4804 31 26.7348 31 27V33C31 33.2652 31.1054 33.5196 31.2929 33.7071C31.4804 33.8946 31.7348 34 32 34ZM33 28H37V32H33V28Z" fill="#3B8686"/>
<path d="M18 43V37C18 36.7348 17.8946 36.4804 17.7071 36.2929C17.5196 36.1054 17.2652 36 17 36H11C10.7348 36 10.4804 36.1054 10.2929 36.2929C10.1054 36.4804 10 36.7348 10 37V43C10 43.2652 10.1054 43.5196 10.2929 43.7071C10.4804 43.8946 10.7348 44 11 44H17C17.2652 44 17.5196 43.8946 17.7071 43.7071C17.8946 43.5196 18 43.2652 18 43ZM16 42H12V38H16V42Z" fill="#3B8686"/>
<path d="M20 23C20 23.2652 20.1054 23.5196 20.2929 23.7071C20.4804 23.8946 20.7348 24 21 24H28C28.2652 24 28.5196 23.8946 28.7071 23.7071C28.8946 23.5196 29 23.2652 29 23C29 22.7348 28.8946 22.4804 28.7071 22.2929C28.5196 22.1054 28.2652 22 28 22H21C20.7348 22 20.4804 22.1054 20.2929 22.2929C20.1054 22.4804 20 22.7348 20 23Z" fill="#3B8686"/>
<path d="M28 32H21C20.7348 32 20.4804 32.1054 20.2929 32.2929C20.1054 32.4804 20 32.7348 20 33C20 33.2652 20.1054 33.5196 20.2929 33.7071C20.4804 33.8946 20.7348 34 21 34H28C28.2652 34 28.5196 33.8946 28.7071 33.7071C28.8946 33.5196 29 33.2652 29 33C29 32.7348 28.8946 32.4804 28.7071 32.2929C28.5196 32.1054 28.2652 32 28 32V32Z" fill="#3B8686"/>
<path d="M32 24H38C38.2652 24 38.5196 23.8946 38.7071 23.7071C38.8946 23.5196 39 23.2652 39 23V17C39 16.7348 38.8946 16.4804 38.7071 16.2929C38.5196 16.1054 38.2652 16 38 16H32C31.7348 16 31.4804 16.1054 31.2929 16.2929C31.1054 16.4804 31 16.7348 31 17V23C31 23.2652 31.1054 23.5196 31.2929 23.7071C31.4804 23.8946 31.7348 24 32 24ZM33 18H37V22H33V18Z" fill="#3B8686"/>
<path d="M61.906 14.4891C61.794 14.2488 61.5911 14.0628 61.342 13.9721L58.523 12.9461L59.549 10.1271C59.5939 10.0035 59.614 9.87229 59.6081 9.74095C59.6023 9.60961 59.5706 9.48071 59.5148 9.36164C59.4591 9.24256 59.3804 9.13565 59.2834 9.04701C59.1863 8.95837 59.0726 8.88974 58.949 8.84506L59.975 6.02706C60.1134 5.65606 60.1769 5.26133 60.162 4.86565C60.1471 4.46997 60.0539 4.08116 59.888 3.72164C59.7221 3.36212 59.4866 3.039 59.1952 2.77092C58.9038 2.50284 58.5622 2.2951 58.1901 2.15967C57.8181 2.02425 57.4229 1.96382 57.0273 1.98188C56.6318 1.99994 56.2437 2.09612 55.8855 2.26488C55.5273 2.43365 55.206 2.67165 54.9403 2.96517C54.6745 3.25869 54.4695 3.60191 54.337 3.97506L53.313 6.79406C53.1895 6.74931 53.0584 6.72933 52.9272 6.73527C52.7959 6.74121 52.6672 6.77294 52.5482 6.82866C52.4292 6.88438 52.3224 6.96299 52.2338 7.06001C52.1453 7.15702 52.0767 7.27053 52.032 7.39406L50 12.9741V10.0001C50 9.20441 49.6839 8.44135 49.1213 7.87874C48.5587 7.31613 47.7956 7.00006 47 7.00006H40.816C40.6099 6.41715 40.2288 5.91215 39.7247 5.55414C39.2206 5.19614 38.6183 5.00262 38 5.00006C37.7348 5.00006 37.4804 4.8947 37.2929 4.70716C37.1054 4.51963 37 4.26527 37 4.00006V3.00006C37 2.73484 36.8946 2.48049 36.7071 2.29295C36.5196 2.10541 36.2652 2.00006 36 2.00006H18C17.7348 2.00006 17.4804 2.10541 17.2929 2.29295C17.1054 2.48049 17 2.73484 17 3.00006V4.00006C17 4.26527 16.8946 4.51963 16.7071 4.70716C16.5196 4.8947 16.2652 5.00006 16 5.00006C15.3817 5.00262 14.7794 5.19614 14.2753 5.55414C13.7712 5.91215 13.3901 6.41715 13.184 7.00006H7C6.20435 7.00006 5.44129 7.31613 4.87868 7.87874C4.31607 8.44135 4 9.20441 4 10.0001V59.0001C4 59.7957 4.31607 60.5588 4.87868 61.1214C5.44129 61.684 6.20435 62.0001 7 62.0001H47C47.7956 62.0001 48.5587 61.684 49.1213 61.1214C49.6839 60.5588 50 59.7957 50 59.0001V36.3641L57.839 14.8261L59.718 15.5101L55.888 26.0351C55.839 26.1593 55.8154 26.2922 55.8186 26.4257C55.8218 26.5592 55.8518 26.6908 55.9066 26.8126C55.9615 26.9343 56.0402 27.0439 56.1381 27.1348C56.2361 27.2256 56.3512 27.2959 56.4767 27.3416C56.6023 27.3872 56.7357 27.4072 56.8691 27.4004C57.0025 27.3937 57.1332 27.3602 57.2534 27.3021C57.3737 27.244 57.4811 27.1624 57.5693 27.0621C57.6575 26.9617 57.7247 26.8448 57.767 26.7181L61.939 15.2541C61.984 15.1306 62.0043 14.9995 61.9986 14.8683C61.993 14.737 61.9615 14.6082 61.906 14.4891V14.4891ZM53.569 9.01506L57.328 10.3831L56.643 12.2631L52.885 10.9001L53.569 9.01506ZM56.218 4.65906C56.3087 4.40975 56.4947 4.20669 56.7351 4.09455C56.9756 3.9824 57.2507 3.97035 57.5 4.06106C57.7493 4.15176 57.9524 4.33779 58.0645 4.57821C58.1767 4.81863 58.1887 5.09375 58.098 5.34306L57.072 8.16106L55.192 7.47706L56.218 4.65906ZM15 8.00006C15 7.73484 15.1054 7.48049 15.2929 7.29295C15.4804 7.10541 15.7348 7.00006 16 7.00006C16.7956 7.00006 17.5587 6.68399 18.1213 6.12138C18.6839 5.55877 19 4.79571 19 4.00006H35C35 4.79571 35.3161 5.55877 35.8787 6.12138C36.4413 6.68399 37.2044 7.00006 38 7.00006C38.2652 7.00006 38.5196 7.10541 38.7071 7.29295C38.8946 7.48049 39 7.73484 39 8.00006V10.0001H15V8.00006ZM47 60.0001H7C6.73478 60.0001 6.48043 59.8947 6.29289 59.7072C6.10536 59.5196 6 59.2653 6 59.0001V10.0001C6 9.73484 6.10536 9.48049 6.29289 9.29295C6.48043 9.10541 6.73478 9.00006 7 9.00006H13V11.0001C13 11.2653 13.1054 11.5196 13.2929 11.7072C13.4804 11.8947 13.7348 12.0001 14 12.0001H40C40.2652 12.0001 40.5196 11.8947 40.7071 11.7072C40.8946 11.5196 41 11.2653 41 11.0001V9.00006H47C47.2652 9.00006 47.5196 9.10541 47.7071 9.29295C47.8946 9.48049 48 9.73484 48 10.0001V18.4681L46.714 22.0001H42C41.7348 22.0001 41.4804 22.1054 41.2929 22.2929C41.1054 22.4805 41 22.7348 41 23.0001C41 23.2653 41.1054 23.5196 41.2929 23.7072C41.4804 23.8947 41.7348 24.0001 42 24.0001H45.987L43.075 32.0001H42C41.7348 32.0001 41.4804 32.1054 41.2929 32.2929C41.1054 32.4805 41 32.7348 41 33.0001C41 33.2653 41.1054 33.5196 41.2929 33.7072C41.4804 33.8947 41.7348 34.0001 42 34.0001H42.347L40.747 38.4001C40.7032 38.5194 40.6829 38.646 40.687 38.7731L40.856 44.1561C40.8624 44.3558 40.9285 44.5491 41.0458 44.711C41.163 44.8728 41.3261 44.9958 41.514 45.0641L41.172 46.0041C41.1241 46.1281 41.1014 46.2604 41.1053 46.3933C41.1092 46.5262 41.1395 46.657 41.1945 46.778C41.2495 46.8991 41.3281 47.0079 41.4257 47.0982C41.5233 47.1885 41.6379 47.2585 41.7628 47.3039C41.8877 47.3494 42.0205 47.3695 42.1533 47.3631C42.2861 47.3567 42.4163 47.3238 42.5362 47.2665C42.6562 47.2091 42.7635 47.1284 42.8519 47.0291C42.9403 46.9298 43.008 46.8138 43.051 46.6881L43.393 45.7481C43.5022 45.7884 43.6176 45.809 43.734 45.8091C43.8749 45.8091 44.0141 45.7793 44.1427 45.7218C44.2712 45.6642 44.3862 45.5801 44.48 45.4751L48 41.5381V59.0001C48 59.2653 47.8946 59.5196 47.7071 59.7072C47.5196 59.8947 47.2652 60.0001 47 60.0001ZM43.439 43.6381L42.832 43.4171L42.732 40.1881L45.595 41.2301L43.439 43.6381ZM46.725 39.5141L42.966 38.1461L52.2 12.7741L55.958 14.1421L46.725 39.5141Z" fill="#3B8686"/>
</svg>
